<?xml version="1.0" standalone="no"?>
<!DOCTYPE svg PUBLIC "-//W3C//DTD SVG 20010904//EN"
 "http://www.w3.org/TR/2001/REC-SVG-20010904/DTD/svg10.dtd">
<svg version="1.0" xmlns="http://www.w3.org/2000/svg"
 width="512.000000pt" height="512.000000pt" viewBox="0 0 512.000000 512.000000"
 preserveAspectRatio="xMidYMid meet">
<metadata>
Created by potrace 1.14, written by Peter Selinger 2001-2017
</metadata>
<g transform="translate(0.000000,512.000000) scale(0.100000,-0.100000)"
fill="#000000" stroke="none">
<path d="M3910 5100 c-77 -23 -161 -80 -207 -138 -21 -27 -107 -152 -191 -278
l-154 -229 -1361 0 c-961 0 -1380 -3 -1422 -11 -164 -30 -294 -159 -322 -319
-5 -28 -8 -649 -8 -1395 l1 -1345 22 -55 c45 -112 130 -197 242 -242 l55 -22
810 -2 c446 -2 817 -3 826 -3 15 -1 14 -13 -10 -108 -15 -60 -28 -111 -28
-116 -1 -4 -16 -67 -33 -140 l-32 -132 -162 -1 c-140 0 -167 -3 -207 -21 -110
-49 -177 -146 -186 -269 l-6 -74 -172 0 c-157 0 -175 -2 -198 -20 -49 -39 -52
-114 -6 -156 21 -19 56 -19 1392 -22 1208 -2 1373 0 1393 13 44 28 60 83 38
127 -28 54 -44 58 -230 58 l-171 0 -6 74 c-9 123 -75 219 -186 269 -40 18 -66
21 -208 21 l-163 1 -26 115 c-15 63 -41 174 -59 245 -17 72 -30 132 -29 134 2
2 362 4 800 4 439 0 818 4 843 9 103 19 203 87 261 178 67 104 63 8 65 1490 1
1433 2 1406 -47 1500 -33 63 -115 142 -181 173 -59 28 -147 46 -199 42 -33 -3
-33 -10 3 90 55 151 6 344 -115 457 -110 102 -284 142 -426 98z m237 -208
c108 -56 156 -191 106 -302 -11 -25 -89 -128 -172 -230 -84 -102 -182 -221
-218 -265 -114 -140 -129 -158 -218 -265 -48 -58 -92 -105 -99 -105 -21 0
-295 209 -288 220 21 33 578 864 591 881 20 27 74 65 115 81 43 17 134 10 183
-15z m-936 -646 c2 -11 -444 -678 -456 -682 -5 -1 -35 -5 -66 -8 -244 -23
-434 -145 -528 -339 -96 -194 -101 -505 -16 -804 28 -98 106 -123 182 -58 57
49 129 82 199 94 32 5 136 8 229 6 245 -4 343 21 447 117 133 122 187 299 151
494 l-14 75 137 167 c76 92 156 190 178 217 23 28 54 66 71 85 16 20 46 56 65
80 19 24 49 60 66 80 38 45 307 374 375 459 18 23 26 24 127 25 59 1 126 -2
150 -6 59 -10 117 -54 144 -108 l23 -45 0 -977 c0 -538 -2 -978 -5 -979 -3 -1
-717 -2 -1587 -3 l-1582 -1 -28 -21 c-56 -42 -54 -123 4 -161 26 -17 102 -18
1612 -18 l1586 0 0 -243 c0 -164 -4 -257 -12 -285 -14 -50 -54 -97 -103 -123
-34 -18 -96 -19 -2000 -19 l-1965 0 -47 28 c-31 18 -57 44 -75 74 l-27 47 -1
260 0 261 156 0 c132 1 160 4 183 18 53 35 60 101 17 149 l-29 33 -153 1 c-85
1 -159 2 -164 3 -7 1 -10 331 -9 979 0 865 2 981 16 1012 29 65 81 106 148
118 57 10 2600 8 2601 -2z m56 -572 c176 -128 170 -98 50 -246 -56 -70 -106
-127 -112 -127 -11 -1 -242 169 -247 182 -4 9 173 277 183 277 4 0 61 -39 126
-86z m-309 -446 l180 -133 15 -56 c40 -158 -32 -318 -166 -367 -32 -12 -90
-16 -252 -17 -215 -1 -285 -10 -377 -46 -27 -10 -48 -18 -49 -16 -24 75 -30
329 -9 419 49 209 207 336 431 347 46 2 52 -2 227 -131z m-263 -2170 c3 -2 29
-109 59 -237 31 -128 58 -236 61 -242 8 -11 16 -11 -268 -13 l-239 -1 6 30 c7
40 7 42 60 263 25 106 46 195 46 197 0 10 265 13 275 3z m632 -706 c31 -17 53
-63 53 -112 l0 -40 -820 0 -820 0 0 40 c0 50 22 95 55 112 35 19 1499 18 1532
0z"/>
<path d="M1081 2119 c-106 -64 -20 -226 91 -171 62 32 76 102 31 151 -35 38
-81 45 -122 20z"/>
</g>
</svg>
